<svg xmlns="http://www.w3.org/2000/svg" viewBox="0 0 400 400" width="400" height="400">
  <rect width="400" height="400" fill="#0a0a0a"/>
  <g fill="#e5e5e5" opacity="0.85">
    <path d="M60 280 Q70 230 110 215 Q140 205 175 195 Q200 188 215 175 Q225 165 230 150 Q232 140 240 135 Q250 130 255 125 L260 120 L270 118 L275 122 L272 130 L268 135 L272 142 L280 145 L288 142 L295 138 L300 142 L298 150 L290 155 L285 160 L288 168 L295 172 L300 178 L298 185 L290 188 L280 185 L270 180 L260 182 L250 188 L240 195 L235 205 L240 215 L250 220 L260 218 L270 215 L275 220 L270 228 L260 232 L245 235 L230 240 L215 248 L200 258 L185 270 L170 282 L155 290 L140 295 L120 298 L100 296 L80 290 L65 285 Z"/>
    <path d="M250 130 L255 125 L262 123 L268 126 L266 132 L260 134 Z"/>
    <circle cx="262" cy="128" r="2" fill="#0a0a0a"/>
  </g>
  <text x="200" y="370" text-anchor="middle" font-family="monospace" font-size="11" fill="#888" letter-spacing="2">01 · TYRANNOSAURUS</text>
</svg>
