<svg xmlns="http://www.w3.org/2000/svg" viewBox="0 0 400 400" width="400" height="400">
  <rect width="400" height="400" fill="#0a0a0a"/>
  <g fill="#e5e5e5" opacity="0.85">
    <path d="M80 200 Q90 170 120 165 Q150 160 170 175 Q185 185 200 180 Q220 170 245 175 Q270 180 285 200 Q295 220 290 240 Q280 260 255 265 Q230 270 210 260 Q195 252 180 258 Q160 268 135 265 Q110 260 95 245 Q80 225 80 200 Z"/>
    <circle cx="280" cy="208" r="3" fill="#0a0a0a"/>
    <path d="M295 215 L315 212 L315 218 L295 220 Z"/>
  </g>
  <g fill="none" stroke="#e5e5e5" stroke-width="1.5" opacity="0.5">
    <path d="M150 195 Q160 188 170 195"/>
    <path d="M220 195 Q230 188 240 195"/>
    <path d="M180 230 Q200 240 220 230"/>
  </g>
  <text x="200" y="370" text-anchor="middle" font-family="monospace" font-size="11" fill="#888" letter-spacing="2">03 · REPTILES</text>
</svg>
