<svg xmlns="http://www.w3.org/2000/svg" viewBox="0 0 400 400" width="400" height="400">
  <rect width="400" height="400" fill="#0a0a0a"/>
  <g fill="#e5e5e5" opacity="0.85">
    <path d="M70 220 Q75 200 95 195 Q115 190 135 200 Q150 207 165 200 L180 192 Q195 183 210 188 Q225 193 235 205 Q242 215 245 225 L248 240 Q250 250 245 258 Q240 265 230 265 L215 263 L200 258 L185 252 L170 248 L155 245 L140 242 L125 240 L110 238 L95 235 L80 230 Z"/>
    <path d="M245 225 L260 222 L265 215 L270 210 L275 212 L273 220 L268 228 L260 232 Z"/>
    <circle cx="265" cy="216" r="2" fill="#0a0a0a"/>
    <path d="M250 258 L260 262 L255 268 L248 265 Z"/>
  </g>
  <g stroke="#e5e5e5" stroke-width="1" opacity="0.4">
    <path d="M90 215 Q100 210 110 215"/>
    <path d="M120 218 Q130 213 140 218"/>
    <path d="M150 220 Q160 215 170 220"/>
    <path d="M180 215 Q190 210 200 215"/>
  </g>
  <text x="200" y="370" text-anchor="middle" font-family="monospace" font-size="11" fill="#888" letter-spacing="2">04 · MARINE LIFE</text>
</svg>
