<svg xmlns="http://www.w3.org/2000/svg" viewBox="0 0 400 400" width="400" height="400">
  <rect width="400" height="400" fill="#0a0a0a"/>
  <g fill="#e5e5e5" opacity="0.85">
    <path d="M40 280 Q50 250 80 240 Q110 232 140 238 Q165 243 185 235 Q200 228 210 215 Q215 200 220 185 Q225 170 235 160 Q245 150 260 148 L275 146 L288 145 L295 142 L300 138 L305 132 L308 125 L310 118 L308 112 L304 108 L298 110 L295 116 L292 122 L288 128 L282 132 L275 134 L268 138 L262 142 L258 148 L255 155 L258 162 L265 168 L275 170 L285 168 L292 162 L298 155 L302 148 L305 140"/>
    <path d="M40 280 L35 285 L40 288 L48 285 Z"/>
    <path d="M310 118 L320 115 L325 118 L322 124 L315 125 Z"/>
  </g>
  <g fill="#e5e5e5" opacity="0.6">
    <circle cx="300" cy="125" r="2" fill="#0a0a0a"/>
    <path d="M280 150 L285 155 M285 145 L290 150 M275 155 L280 160"/>
  </g>
  <text x="200" y="370" text-anchor="middle" font-family="monospace" font-size="11" fill="#888" letter-spacing="2">05 · GIANTS</text>
</svg>
