<svg xmlns="http://www.w3.org/2000/svg" viewBox="0 0 1100 600" width="1100" height="600">
  <defs>
    <linearGradient id="ptero-grad" x1="0%" y1="0%" x2="100%" y2="100%">
      <stop offset="0%" stop-color="#1a1a1a"/>
      <stop offset="100%" stop-color="#0a0a0a"/>
    </linearGradient>
  </defs>
  <rect width="1100" height="600" fill="url(#ptero-grad)" opacity="0"/>
  <g fill="#1a1a1a" opacity="0.92">
    <path d="M180 300 Q200 270 240 260 Q290 250 340 258 Q390 266 430 280 Q470 294 500 310 Q525 322 545 330 L560 335 L575 332 L590 326 L605 318 L620 308 L635 296 L650 282 L665 268 L680 256 L695 248 L710 244 L725 246 L740 254 L755 266 L770 280 L785 294 L800 308 L815 320 L830 330 L845 338 L860 344 L875 348 L890 350 L905 350 L920 348 L935 344 L950 338 L965 330 L980 320 L990 308 L995 294 L993 280 L985 268 L970 260 L950 258 L930 262 L910 270 L890 280 L870 290 L850 296 L830 298 L810 296 L790 290 L770 282 L750 272 L730 262 L710 254 L690 248 L670 246 L650 248 L630 254 L610 262 L590 270 L570 274 L555 272 L540 264 L520 252 L495 238 L465 224 L430 212 L390 204 L345 200 L300 202 L260 210 L225 224 L200 244 L188 268 Z"/>
    <path d="M540 335 L545 350 L550 365 L555 380 L560 395 L565 408 L570 418 L575 422 L580 418 L583 408 L585 395 L585 380 L583 365 L580 350 L575 338 Z"/>
    <path d="M180 300 L175 310 L172 322 L170 335 L168 348 L170 360 L175 365 L180 360 L183 348 L185 335 L185 322 L183 310 Z"/>
  </g>
  <g fill="#1a1a1a" opacity="0.6">
    <path d="M545 322 Q560 318 575 322 Q590 326 600 332 L590 336 Q575 332 560 330 Z"/>
  </g>
</svg>
