<svg xmlns="http://www.w3.org/2000/svg" viewBox="0 0 400 400" width="400" height="400">
  <rect width="400" height="400" fill="#0a0a0a"/>
  <g fill="none" stroke="#e5e5e5" stroke-width="2" opacity="0.85">
    <path d="M200 200 m-90 0 a90 90 0 1 0 180 0 a90 90 0 1 0 -180 0"/>
    <path d="M200 200 m-70 0 a70 70 0 1 0 140 0 a70 70 0 1 0 -140 0"/>
    <path d="M200 200 m-50 0 a50 50 0 1 0 100 0 a50 50 0 1 0 -100 0"/>
    <path d="M200 200 m-30 0 a30 30 0 1 0 60 0 a30 30 0 1 0 -60 0"/>
    <path d="M200 200 m-12 0 a12 12 0 1 0 24 0 a12 12 0 1 0 -24 0"/>
  </g>
  <g stroke="#e5e5e5" stroke-width="1.5" opacity="0.7">
    <line x1="200" y1="110" x2="200" y2="290"/>
    <line x1="110" y1="200" x2="290" y2="200"/>
    <line x1="136" y1="136" x2="264" y2="264"/>
    <line x1="264" y1="136" x2="136" y2="264"/>
  </g>
  <text x="200" y="370" text-anchor="middle" font-family="monospace" font-size="11" fill="#888" letter-spacing="2">02 · AMMONITE</text>
</svg>
