<?xml version="1.0" encoding="utf-8"?>
<svg xmlns="http://www.w3.org/2000/svg" fill="none" height="100%" overflow="visible" preserveAspectRatio="none" style="display: block;" viewBox="0 0 205 52" width="100%">
<g id="Logo 2">
<path d="M12.2811 11.3924C14.4052 10.0866 17.8756 11.5255 20.044 14.6438C22.2042 17.7428 22.2679 21.3154 20.152 22.6404C18.0554 23.957 14.5659 22.5264 12.3782 19.4165C10.1988 16.3257 10.1736 12.7365 12.2811 11.3924ZM26.0069 5.45783C28.449 4.83486 31.0274 7.32018 31.8246 11.0085C32.5726 14.741 31.2437 18.2549 28.829 18.8888C26.3952 19.5309 23.836 17.0373 23.0772 13.3323C22.2908 9.61649 23.6198 6.10258 26.0069 5.45783ZM5.82875 24.6635C7.6105 22.7766 11.3247 23.1986 14.1662 25.5019C16.9366 27.9042 17.8152 31.3067 16.0527 33.1852C14.2901 35.0638 10.6034 34.6526 7.78375 32.2944C4.96409 29.9362 4.11549 26.4979 5.82875 24.6635ZM40.3832 9.72339C42.8933 9.73184 44.8169 12.7053 44.6035 16.3749C44.39 20.0446 42.1641 23.0121 39.5881 23.0094C37.0122 23.0066 35.1352 20.0357 35.2828 16.3718C35.5513 12.724 37.7881 9.72895 40.3832 9.72339ZM46.1248 31.8038C46.9818 33.5751 46.4628 36.1692 45.1356 37.6317C42.3799 40.6915 36.8992 39.1877 33.079 40.8394C29.2588 42.4911 26.6197 47.6651 22.5024 47.4174C20.176 47.3068 17.7724 45.3839 17.1256 43.2027C16.2344 40.193 19.0066 37.1715 20.1368 34.1992C21.6733 30.3222 21.3935 24.405 25.252 22.7367C29.0914 21.0766 33.2926 25.2072 37.0877 26.8703C40.2312 28.291 44.6375 28.7328 46.1248 31.8038Z" fill="var(--fill-0, #F96301)" id="Vector"/>
<path d="M80.0185 21.902H76.6946C76.5668 21.1918 76.3288 20.5668 75.9808 20.027C75.6328 19.4872 75.2067 19.0291 74.7024 18.6527C74.1982 18.2763 73.6335 17.9922 73.0085 17.8004C72.3906 17.6087 71.7337 17.5128 71.0376 17.5128C69.7805 17.5128 68.6548 17.8288 67.6605 18.4609C66.6733 19.093 65.892 20.0199 65.3168 21.2415C64.7486 22.4631 64.4645 23.9545 64.4645 25.7159C64.4645 27.4915 64.7486 28.9901 65.3168 30.2116C65.892 31.4332 66.6768 32.3565 67.6712 32.9815C68.6655 33.6065 69.7841 33.919 71.027 33.919C71.7159 33.919 72.3693 33.8267 72.9872 33.642C73.6122 33.4503 74.1768 33.1697 74.6811 32.8004C75.1854 32.4311 75.6115 31.9801 75.9595 31.4474C76.3146 30.9077 76.5597 30.2898 76.6946 29.5938L80.0185 29.6044C79.8409 30.6768 79.4964 31.6641 78.9851 32.5661C78.4808 33.4609 77.831 34.2351 77.0355 34.8885C76.2472 35.5348 75.3452 36.0355 74.3295 36.3906C73.3139 36.7457 72.206 36.9233 71.0057 36.9233C69.1165 36.9233 67.4332 36.4759 65.956 35.581C64.4787 34.679 63.3139 33.3899 62.4616 31.7138C61.6165 30.0376 61.1939 28.0384 61.1939 25.7159C61.1939 23.3864 61.62 21.3871 62.4723 19.718C63.3246 18.0419 64.4893 16.7564 65.9666 15.8615C67.4439 14.9595 69.1236 14.5085 71.0057 14.5085C72.1634 14.5085 73.2429 14.6754 74.2443 15.0092C75.2528 15.3359 76.1584 15.8189 76.9609 16.4581C77.7635 17.0902 78.4276 17.8643 78.9531 18.7805C79.4787 19.6896 79.8338 20.7301 80.0185 21.902ZM89.6946 36.9553C88.1605 36.9553 86.8218 36.6037 85.6783 35.9006C84.5348 35.1974 83.6471 34.2138 83.015 32.9496C82.3828 31.6854 82.0668 30.2081 82.0668 28.5178C82.0668 26.8203 82.3828 25.3359 83.015 24.0646C83.6471 22.7933 84.5348 21.8061 85.6783 21.103C86.8218 20.3999 88.1605 20.0483 89.6946 20.0483C91.2287 20.0483 92.5675 20.3999 93.711 21.103C94.8544 21.8061 95.7422 22.7933 96.3743 24.0646C97.0064 25.3359 97.3225 26.8203 97.3225 28.5178C97.3225 30.2081 97.0064 31.6854 96.3743 32.9496C95.7422 34.2138 94.8544 35.1974 93.711 35.9006C92.5675 36.6037 91.2287 36.9553 89.6946 36.9553ZM89.7053 34.2812C90.6996 34.2812 91.5235 34.0185 92.1769 33.4929C92.8303 32.9673 93.3132 32.2678 93.6257 31.3942C93.9453 30.5206 94.1052 29.5582 94.1052 28.5071C94.1052 27.4631 93.9453 26.5043 93.6257 25.6307C93.3132 24.75 92.8303 24.0433 92.1769 23.5107C91.5235 22.978 90.6996 22.7116 89.7053 22.7116C88.7039 22.7116 87.8729 22.978 87.2124 23.5107C86.559 24.0433 86.0725 24.75 85.7529 25.6307C85.4404 26.5043 85.2841 27.4631 85.2841 28.5071C85.2841 29.5582 85.4404 30.5206 85.7529 31.3942C86.0725 32.2678 86.559 32.9673 87.2124 33.4929C87.8729 34.0185 88.7039 34.2812 89.7053 34.2812ZM99.6371 36.625V34.4411L108.501 23.1804V23.0312H99.9248V20.2614H112.475V22.5838L103.952 33.706V33.8551H112.773V36.625H99.6371ZM117.644 42.7614C117.168 42.7614 116.735 42.7223 116.345 42.6442C115.954 42.5732 115.663 42.495 115.471 42.4098L116.238 39.7997C116.82 39.956 117.339 40.0234 117.793 40.0021C118.248 39.9808 118.649 39.8104 118.997 39.4908C119.352 39.1712 119.665 38.6491 119.935 37.9247L120.329 36.8381L114.342 20.2614H117.751L121.895 32.9602H122.065L126.21 20.2614H129.629L122.886 38.8089C122.573 39.6612 122.176 40.3821 121.693 40.9716C121.21 41.5682 120.634 42.0156 119.967 42.3139C119.299 42.6122 118.525 42.7614 117.644 42.7614ZM131.979 36.625V14.8068H139.756C141.453 14.8068 142.859 15.1158 143.974 15.7337C145.089 16.3516 145.924 17.1967 146.478 18.2692C147.032 19.3345 147.309 20.5348 147.309 21.87C147.309 23.2124 147.028 24.4197 146.467 25.4922C145.913 26.5575 145.075 27.4027 143.953 28.0277C142.838 28.6456 141.435 28.9545 139.745 28.9545H134.397V26.1634H139.447C140.519 26.1634 141.389 25.9787 142.057 25.6094C142.724 25.233 143.214 24.7216 143.527 24.0753C143.839 23.429 143.996 22.6939 143.996 21.87C143.996 21.0462 143.839 20.3146 143.527 19.6754C143.214 19.0362 142.721 18.5355 142.046 18.1733C141.379 17.8111 140.498 17.63 139.404 17.63H135.271V36.625H131.979ZM154.628 36.9872C153.591 36.9872 152.654 36.7955 151.816 36.4119C150.977 36.0213 150.313 35.4567 149.823 34.718C149.34 33.9794 149.099 33.0739 149.099 32.0014C149.099 31.0781 149.276 30.3182 149.632 29.7216C149.987 29.125 150.466 28.6527 151.07 28.3047C151.673 27.9567 152.348 27.6939 153.094 27.5163C153.84 27.3388 154.6 27.2038 155.374 27.1115C156.354 26.9979 157.149 26.9055 157.76 26.8345C158.371 26.7564 158.815 26.6321 159.092 26.4616C159.369 26.2912 159.507 26.0142 159.507 25.6307V25.5561C159.507 24.6257 159.244 23.9048 158.719 23.3935C158.2 22.8821 157.426 22.6264 156.396 22.6264C155.324 22.6264 154.479 22.8643 153.861 23.3402C153.25 23.8089 152.828 24.331 152.593 24.9062L149.6 24.2244C149.955 23.2301 150.473 22.4276 151.155 21.8168C151.844 21.1989 152.636 20.7514 153.531 20.4744C154.426 20.1903 155.367 20.0483 156.354 20.0483C157.007 20.0483 157.7 20.1264 158.431 20.2827C159.17 20.4318 159.859 20.7088 160.498 21.1136C161.144 21.5185 161.673 22.0973 162.085 22.8501C162.497 23.5959 162.703 24.5653 162.703 25.7585V36.625H159.593V34.3878H159.465C159.259 34.7997 158.95 35.2045 158.538 35.6023C158.126 36 157.597 36.3303 156.95 36.593C156.304 36.8558 155.53 36.9872 154.628 36.9872ZM155.32 34.4304C156.201 34.4304 156.954 34.2564 157.579 33.9084C158.211 33.5604 158.691 33.1058 159.017 32.5447C159.351 31.9766 159.518 31.3693 159.518 30.723V28.6136C159.404 28.7273 159.184 28.8338 158.857 28.9332C158.538 29.0256 158.172 29.1072 157.76 29.1783C157.348 29.2422 156.947 29.3026 156.556 29.3594C156.166 29.4091 155.839 29.4517 155.576 29.4872C154.958 29.5653 154.394 29.6967 153.882 29.8814C153.378 30.0661 152.973 30.3324 152.668 30.6804C152.369 31.0213 152.22 31.4759 152.22 32.044C152.22 32.8324 152.512 33.429 153.094 33.8338C153.676 34.2315 154.419 34.4304 155.32 34.4304ZM169.594 36.625L164.778 20.2614H168.07L171.277 32.2784H171.437L174.654 20.2614H177.946L181.142 32.2251H181.302L184.487 20.2614H187.779L182.974 36.625H179.725L176.401 24.8104H176.156L172.832 36.625H169.594ZM202.164 24.2564L199.277 24.7678C199.156 24.3984 198.964 24.0469 198.702 23.7131C198.446 23.3793 198.098 23.1058 197.658 22.8928C197.217 22.6797 196.667 22.5732 196.006 22.5732C195.104 22.5732 194.351 22.7756 193.748 23.1804C193.144 23.5781 192.842 24.093 192.842 24.7251C192.842 25.272 193.045 25.7124 193.449 26.0462C193.854 26.38 194.508 26.6534 195.41 26.8665L198.009 27.4631C199.515 27.8111 200.637 28.3473 201.376 29.0717C202.114 29.7962 202.484 30.7372 202.484 31.8949C202.484 32.875 202.199 33.7486 201.631 34.5156C201.07 35.2756 200.285 35.8722 199.277 36.3054C198.275 36.7386 197.114 36.9553 195.793 36.9553C193.961 36.9553 192.466 36.5646 191.308 35.7834C190.15 34.995 189.44 33.8764 189.177 32.4276L192.256 31.9588C192.448 32.7614 192.842 33.3686 193.439 33.7805C194.035 34.1854 194.813 34.3878 195.772 34.3878C196.816 34.3878 197.65 34.1712 198.275 33.7379C198.9 33.2976 199.213 32.7614 199.213 32.1293C199.213 31.6179 199.021 31.1882 198.638 30.8402C198.261 30.4922 197.682 30.2294 196.901 30.0518L194.131 29.4446C192.604 29.0966 191.475 28.5426 190.743 27.7827C190.019 27.0227 189.657 26.0604 189.657 24.8956C189.657 23.9297 189.927 23.0845 190.467 22.3601C191.006 21.6357 191.752 21.071 192.704 20.6662C193.655 20.2543 194.746 20.0483 195.974 20.0483C197.743 20.0483 199.135 20.4318 200.15 21.1989C201.166 21.9588 201.837 22.978 202.164 24.2564Z" fill="var(--fill-0, #003C08)" id="Vector_2"/>
</g>
</svg>