<?xml version="1.0" encoding="utf-8"?>
<svg xmlns="http://www.w3.org/2000/svg" fill="none" height="100%" overflow="visible" preserveAspectRatio="none" style="display: block;" viewBox="0 0 136 40" width="100%">
<g id="Frame_1707484103_n8wkpg 1">
<g id="Group">
<path d="M127.074 26.9115C127.074 27.2047 126.97 27.456 126.76 27.6655C126.551 27.8609 126.306 27.9587 126.027 27.9587H124.75C124.205 27.9587 123.87 27.6794 123.744 27.121C123.717 26.9813 123.703 26.4857 123.703 25.634V15.3932H118.697V26.9115C118.697 27.2047 118.593 27.456 118.383 27.6655C118.174 27.8609 117.929 27.9587 117.65 27.9587H116.373C115.661 27.9587 115.305 27.4421 115.305 26.4089L115.326 17.9063C115.326 16.4264 115.333 15.5119 115.347 15.1628C115.374 14.6323 115.612 14.3042 116.059 14.1786C116.226 14.1367 116.68 14.1157 117.42 14.1157L117.399 13.5503C117.399 12.5311 117.755 12.0215 118.467 12.0215H123.933C124.45 12.0215 124.771 12.2658 124.896 12.7545C124.952 12.936 124.98 13.3897 124.98 14.1157C125.902 14.1157 126.46 14.1786 126.655 14.3042C126.935 14.4857 127.074 14.9883 127.074 15.8121V26.9115Z" fill="var(--fill-0, #747474)" id="Vector"/>
<path d="M112.213 27.9587H110.935C110.223 27.9587 109.867 27.4421 109.867 26.4089L109.888 13.0686C109.888 12.7754 109.993 12.5311 110.202 12.3356C110.412 12.1262 110.656 12.0215 110.935 12.0215H112.213C112.925 12.0215 113.281 12.5381 113.281 13.5712L113.26 26.9115C113.26 27.2047 113.155 27.456 112.946 27.6655C112.75 27.8609 112.506 27.9587 112.213 27.9587Z" fill="var(--fill-0, #747474)" id="Vector_2"/>
<path d="M105.77 26.4293C105.784 27.4485 105.428 27.9581 104.702 27.9581H102.608C101.505 27.9581 100.856 27.8883 100.66 27.7487C100.409 27.5532 100.283 26.925 100.283 25.8639H99.4665L99.4874 26.4293C99.4874 27.0576 99.3687 27.4904 99.1314 27.7277C98.922 27.9092 98.5729 28 98.0843 28C97.9586 28 97.7492 27.993 97.456 27.9791C97.1628 27.9651 96.9254 27.9581 96.7439 27.9581C96.7021 27.9721 96.6602 27.9791 96.6183 27.9791C95.3897 27.9791 94.6776 27.9232 94.4822 27.8115C94.161 27.6021 94.0005 26.9529 94.0005 25.8639H93.456C92.4228 25.8778 91.9062 25.5288 91.9062 24.8168V13.5707C91.9062 12.8586 92.0459 12.4049 92.3251 12.2094C92.5345 12.0698 93.0092 12 93.7492 12C94.7684 12 95.278 12.356 95.278 13.0681V24.5864H98.189V15.6649C98.189 14.9529 98.3286 14.4991 98.6078 14.3037C98.8172 14.164 99.2919 14.0942 100.032 14.0942C101.051 14.0942 101.561 14.4503 101.561 15.1623L101.582 22.4293C101.582 23.7696 101.582 24.4887 101.582 24.5864H104.472V13.5707C104.472 12.8586 104.611 12.4049 104.891 12.2094C105.1 12.0698 105.575 12 106.315 12C107.334 12 107.843 12.356 107.843 13.0681V24.1257C107.843 24.9634 107.711 25.4799 107.446 25.6754C107.25 25.801 106.685 25.8639 105.749 25.8639L105.77 26.4293Z" fill="var(--fill-0, #747474)" id="Vector_3"/>
<path d="M89.7663 26.9105C89.7663 27.2037 89.6615 27.455 89.4521 27.6645C89.2567 27.8599 89.0123 27.9577 88.7191 27.9577H87.4417C87.1624 27.9577 86.9181 27.8599 86.7087 27.6645C86.4992 27.455 86.3945 27.2037 86.3945 26.9105V25.6331C86.3945 25.3399 86.4992 25.0955 86.7087 24.9001C86.9181 24.6906 87.1624 24.5859 87.4417 24.5859H88.7191C89.0123 24.5859 89.2567 24.6906 89.4521 24.9001C89.6615 25.0955 89.7663 25.3399 89.7663 25.6331V26.9105Z" fill="var(--fill-0, #747474)" id="Vector_4"/>
<path d="M84.2302 26.9115C84.2302 27.2047 84.1255 27.456 83.9161 27.6655C83.7206 27.8609 83.4763 27.9587 83.1831 27.9587H81.9266C81.3821 27.9587 81.047 27.6794 80.9213 27.121C80.8795 26.9534 80.8585 26.4578 80.8585 25.634V21.6759H75.9161V26.9115C75.9161 27.2047 75.8114 27.456 75.602 27.6655C75.3925 27.8609 75.1482 27.9587 74.869 27.9587H73.5915C72.8795 27.9587 72.5234 27.4421 72.5234 26.4089C72.5234 25.8644 72.5234 25.0407 72.5234 23.9377C72.5374 22.8347 72.5444 22.004 72.5444 21.4456C72.5444 20.929 72.7887 20.6079 73.2774 20.4822C73.4589 20.4264 73.9126 20.3984 74.6386 20.3984V19.5817C73.7032 19.5817 73.1377 19.5189 72.9423 19.3932C72.677 19.1977 72.5444 18.6812 72.5444 17.8435V13.0686C72.5444 12.7754 72.6421 12.5311 72.8376 12.3356C73.047 12.1262 73.2983 12.0215 73.5915 12.0215H74.869C75.4135 12.0215 75.7486 12.3007 75.8742 12.8592C75.9161 13.0267 75.9371 13.5224 75.9371 14.3461V18.3042H80.8585V13.0686C80.8585 12.7754 80.9632 12.5311 81.1727 12.3356C81.3821 12.1262 81.6264 12.0215 81.9056 12.0215H83.1831C83.8952 12.0215 84.2512 12.5381 84.2512 13.5712C84.2512 14.1157 84.2512 14.9395 84.2512 16.0424C84.2372 17.1454 84.2302 17.9691 84.2302 18.5136C84.2302 19.0442 83.9859 19.3723 83.4973 19.4979C83.3158 19.5538 82.862 19.5817 82.136 19.5817V20.3984C83.0714 20.3984 83.6369 20.4613 83.8323 20.5869C84.0976 20.7824 84.2302 21.299 84.2302 22.1367V26.9115Z" fill="var(--fill-0, #747474)" id="Vector_5"/>
<path d="M68.9123 25.8644V26.4299C68.9262 27.4491 68.5772 27.9587 67.8651 27.9587H62.3992C61.8826 27.9587 61.5545 27.7143 61.4149 27.2257C61.373 27.0442 61.3521 26.5904 61.3521 25.8644C60.4166 25.8644 59.8512 25.8016 59.6557 25.6759C59.3904 25.4805 59.2578 24.9639 59.2578 24.1262V15.1628C59.2578 14.6463 59.5021 14.3251 59.9908 14.1995C60.1723 14.1436 60.626 14.1157 61.3521 14.1157L61.3311 13.5503C61.3171 12.5311 61.6732 12.0215 62.3992 12.0215H67.8651C68.3817 12.0215 68.7028 12.2658 68.8285 12.7545C68.8843 12.936 68.9123 13.3897 68.9123 14.1157C69.8756 14.1157 70.455 14.1925 70.6505 14.3461C70.8878 14.5416 71.0065 15.093 71.0065 16.0005C71.0065 16.9918 70.6575 17.4875 69.9594 17.4875H68.6819C68.1653 17.4875 67.8372 17.2431 67.6976 16.7545C67.6557 16.573 67.6348 16.1192 67.6348 15.3932H62.6295V24.5869H67.6348L67.6138 24.0215C67.5999 23.0023 67.9559 22.4927 68.6819 22.4927H69.9594C70.6714 22.4927 71.0274 23.0093 71.0274 24.0424C71.0274 24.922 70.8878 25.4595 70.6086 25.655C70.4131 25.7946 69.8477 25.8644 68.9123 25.8644Z" fill="var(--fill-0, #747474)" id="Vector_6"/>
<path d="M50.3708 15.3932H47.5017C46.7896 15.3932 46.4336 14.8766 46.4336 13.8435C46.4336 13.271 46.4755 12.8731 46.5592 12.6498C46.7128 12.2309 47.027 12.0215 47.5017 12.0215H50.8734C51.39 12.0215 51.7111 12.2658 51.8367 12.7545C51.8926 12.936 51.9205 13.3897 51.9205 14.1157H52.7373L52.7582 13.5503C52.7722 12.5311 53.1142 12.0215 53.7844 12.0215H57.1561C57.8681 12.0215 58.2242 12.5381 58.2242 13.5712C58.2242 14.1436 58.1823 14.5416 58.0985 14.7649C57.9449 15.1838 57.6308 15.3932 57.1561 15.3932H54.0147V26.9115C54.0147 27.2047 53.91 27.456 53.7006 27.6655C53.4912 27.8609 53.2469 27.9587 52.9676 27.9587H51.6901C51.1456 27.9587 50.8106 27.6794 50.6849 27.121C50.657 26.9813 50.643 26.4857 50.643 25.634V15.3932H50.3708Z" fill="var(--fill-0, #747474)" id="Vector_7"/>
<path d="M43.8416 27.9587H42.5642C41.8521 27.9587 41.4961 27.4421 41.4961 26.4089L41.517 13.0686C41.517 12.7754 41.6217 12.5311 41.8312 12.3356C42.0406 12.1262 42.2849 12.0215 42.5642 12.0215H43.8416C44.5537 12.0215 44.9097 12.5381 44.9097 13.5712L44.8888 26.9115C44.8888 27.2047 44.7841 27.456 44.5746 27.6655C44.3792 27.8609 44.1348 27.9587 43.8416 27.9587Z" fill="var(--fill-0, #747474)" id="Vector_8"/>
<path d="M37.4029 26.4293C37.4169 27.4485 37.0609 27.9581 36.3349 27.9581H34.2406C33.1377 27.9581 32.4885 27.8883 32.293 27.7487C32.0417 27.5532 31.916 26.925 31.916 25.8639H31.0993L31.1202 26.4293C31.1202 27.0576 31.0015 27.4904 30.7642 27.7277C30.5548 27.9092 30.2057 28 29.7171 28C29.5914 28 29.382 27.993 29.0888 27.9791C28.7956 27.9651 28.5583 27.9581 28.3768 27.9581C28.3349 27.9721 28.293 27.9791 28.2511 27.9791C27.0225 27.9791 26.3104 27.9232 26.115 27.8115C25.7939 27.6021 25.6333 26.9529 25.6333 25.8639H25.0888C24.0556 25.8778 23.5391 25.5288 23.5391 24.8168V13.5707C23.5391 12.8586 23.6787 12.4049 23.9579 12.2094C24.1673 12.0698 24.642 12 25.382 12C26.4012 12 26.9108 12.356 26.9108 13.0681V24.5864H29.8218V15.6649C29.8218 14.9529 29.9614 14.4991 30.2406 14.3037C30.4501 14.164 30.9248 14.0942 31.6647 14.0942C32.6839 14.0942 33.1935 14.4503 33.1935 15.1623L33.2145 22.4293C33.2145 23.7696 33.2145 24.4887 33.2145 24.5864H36.1045V13.5707C36.1045 12.8586 36.2441 12.4049 36.5234 12.2094C36.7328 12.0698 37.2075 12 37.9474 12C38.9666 12 39.4762 12.356 39.4762 13.0681V24.1257C39.4762 24.9634 39.3436 25.4799 39.0783 25.6754C38.8829 25.801 38.3174 25.8639 37.382 25.8639L37.4029 26.4293Z" fill="var(--fill-0, #747474)" id="Vector_9"/>
<path d="M21.5065 24.8066C21.5065 25.3231 21.2622 25.6442 20.7735 25.7699C20.592 25.8258 20.1383 25.8537 19.4123 25.8537V26.4191C19.4262 27.4383 19.0772 27.9479 18.3651 27.9479H12.8992C12.3826 27.9479 12.0545 27.7036 11.9149 27.2149C11.873 27.0334 11.8521 26.5797 11.8521 25.8537C10.8747 25.8537 10.2814 25.7699 10.0719 25.6024C9.86252 25.4209 9.75781 24.8764 9.75781 23.9689C9.75781 22.9776 10.1069 22.4819 10.8049 22.4819H12.0824C12.599 22.4819 12.9201 22.7263 13.0458 23.2149C13.1016 23.3964 13.1295 23.8502 13.1295 24.5762H18.1348C18.1348 24.4226 18.1348 24.1783 18.1348 23.8432C18.1487 23.5221 18.1557 23.2778 18.1557 23.1102C18.1557 22.9566 18.1487 22.7193 18.1348 22.3982C18.1348 22.0631 18.1348 21.8188 18.1348 21.6652H12.8992C12.3826 21.6652 12.0545 21.4209 11.9149 20.9322C11.873 20.7507 11.8521 20.297 11.8521 19.571C10.8747 19.571 10.2814 19.4802 10.0719 19.2987C9.86252 19.1172 9.75781 18.5657 9.75781 17.6443V15.1521C9.75781 14.6355 10.0021 14.3144 10.4908 14.1888C10.6723 14.1329 11.126 14.105 11.8521 14.105V13.5395C11.8381 12.5203 12.1871 12.0107 12.8992 12.0107H18.3651C18.8817 12.0107 19.2028 12.2551 19.3285 12.7437C19.3843 12.9252 19.4123 13.379 19.4123 14.105C20.3756 14.105 20.955 14.1818 21.1505 14.3353C21.3878 14.5308 21.5065 15.0823 21.5065 15.9898C21.5065 16.9811 21.1575 17.4767 20.4594 17.4767H19.1819C18.6653 17.4767 18.3372 17.2324 18.1976 16.7437C18.1557 16.5622 18.1348 16.1085 18.1348 15.3825H13.1295V18.2935H18.3651C18.8817 18.2935 19.2028 18.5378 19.3285 19.0264C19.3843 19.2079 19.4123 19.6617 19.4123 20.3877C20.3617 20.3877 20.9341 20.4575 21.1295 20.5971C21.3808 20.7926 21.5065 21.3301 21.5065 22.2097V24.8066Z" fill="var(--fill-0, #747474)" id="Vector_10"/>
<path d="M11.8164 18.2725H19.6698V21.9374H11.8164V18.2725Z" fill="var(--fill-0, #747474)" id="Vector_11"/>
<path d="M15.4801 17.2246C16.3476 17.2246 17.0508 17.9278 17.0508 18.7953V21.4131C17.0508 22.2806 16.3476 22.9838 15.4801 22.9838C14.6126 22.9838 13.9094 22.2806 13.9094 21.4131V18.7953C13.9094 17.9278 14.6126 17.2246 15.4801 17.2246Z" fill="var(--fill-0, #747474)" id="Vector_12"/>
<path d="M11.2964 14.084C12.3085 14.084 13.1289 14.9044 13.1289 15.9164V17.7489C13.1289 18.7609 12.3085 19.5814 11.2964 19.5814C10.2844 19.5814 9.46399 18.7609 9.46399 17.7489V15.9164C9.46399 14.9044 10.2844 14.084 11.2964 14.084Z" fill="var(--fill-0, #747474)" id="Vector_13"/>
<path d="M19.6754 20.1045C20.6874 20.1045 21.5078 20.9249 21.5078 21.937V23.7694C21.5078 24.7815 20.6874 25.6019 19.6754 25.6019C18.6633 25.6019 17.8429 24.7815 17.8429 23.7694V21.937C17.8429 20.9249 18.6633 20.1045 19.6754 20.1045Z" fill="var(--fill-0, #747474)" id="Vector_14"/>
</g>
</g>
</svg>