<?xml version="1.0" encoding="utf-8"?>
<svg xmlns="http://www.w3.org/2000/svg" fill="none" height="100%" overflow="visible" preserveAspectRatio="none" style="display: block;" viewBox="0 0 136 40" width="100%">
<g id="Frame_1707484106_hxdb8u 1">
<g id="Group">
<path d="M9.99976 15.5C9.99976 11.3579 13.3576 8 17.4998 8H21.9998V32H17.4998C13.3576 32 9.99976 28.6421 9.99976 24.5V15.5Z" fill="url(#paint0_linear_0_8)" id="Vector"/>
<g id="Vector_2">
</g>
<g id="Vector_3">
</g>
<g id="Vector_4">
</g>
<g id="Vector_5">
</g>
<path d="M52.1924 25.9707H49.6724L44.2324 11.9707H46.8124L50.9324 22.6907L54.9124 11.9707H57.4724L52.1924 25.9707ZM60.1219 13.9507C59.2619 13.9507 58.6019 13.2707 58.6019 12.4107C58.6019 11.5507 59.2619 10.8907 60.1219 10.8907C61.0019 10.8907 61.6419 11.5507 61.6419 12.4107C61.6419 13.2707 61.0019 13.9507 60.1219 13.9507ZM61.3019 25.9707H58.9419V15.3707H61.3019V25.9707ZM67.9276 26.2707C65.0276 26.2707 63.3076 24.9107 63.1676 22.5907H65.4476C65.5276 23.7307 66.5076 24.3307 67.8076 24.3307C69.0076 24.3307 69.6476 23.8707 69.6476 23.0507C69.6476 22.2307 68.9676 22.0707 68.0476 21.7707L66.6476 21.3107C64.8876 20.7307 63.3676 20.1307 63.3676 18.1707C63.3676 16.2907 64.8076 15.0507 67.3476 15.0507C69.8076 15.0507 71.4876 16.3507 71.7676 18.7507H69.5276C69.4076 17.5507 68.5476 16.9907 67.3276 16.9907C66.2876 16.9907 65.6876 17.4307 65.6876 18.1507C65.6876 18.9707 66.6076 19.1907 67.3676 19.4507L68.6476 19.8707C70.7476 20.5707 72.0076 21.2107 72.0076 23.1107C72.0076 25.0707 70.5276 26.2707 67.9276 26.2707ZM74.8876 13.9507C74.0276 13.9507 73.3676 13.2707 73.3676 12.4107C73.3676 11.5507 74.0276 10.8907 74.8876 10.8907C75.7676 10.8907 76.4076 11.5507 76.4076 12.4107C76.4076 13.2707 75.7676 13.9507 74.8876 13.9507ZM76.0676 25.9707H73.7076V15.3707H76.0676V25.9707ZM83.3532 26.2707C79.9132 26.2707 77.9132 23.8507 77.9132 20.5707C77.9132 17.1107 80.2532 15.0507 83.3532 15.0507C86.7732 15.0507 88.7732 17.4507 88.7732 20.5707C88.7732 24.1507 86.5132 26.2707 83.3532 26.2707ZM83.3532 24.2507C85.2532 24.2507 86.3732 22.6907 86.3732 20.5707C86.3732 18.4707 85.1932 17.0707 83.3532 17.0707C81.5132 17.0707 80.3132 18.4707 80.3132 20.5707C80.3132 22.8907 81.6132 24.2507 83.3532 24.2507ZM92.9816 25.9707H90.6216V15.3707H92.5216L92.7216 16.9307C93.3816 15.8307 94.7216 15.0507 96.3016 15.0507C98.5616 15.0507 100.042 16.5707 100.042 18.9507V25.9707H97.6816V19.0707C97.6816 17.8907 96.9016 17.1107 95.5816 17.1107C94.0416 17.1107 93.0016 18.1707 92.9816 19.5507V25.9707ZM103.481 13.9507C102.621 13.9507 101.961 13.2707 101.961 12.4107C101.961 11.5507 102.621 10.8907 103.481 10.8907C104.361 10.8907 105.001 11.5507 105.001 12.4107C105.001 13.2707 104.361 13.9507 103.481 13.9507ZM104.661 25.9707H102.301V15.3707H104.661V25.9707ZM108.867 25.9707H106.207L110.027 20.6707L106.267 15.3707H108.907L111.367 18.9107L113.807 15.3707H116.447L112.687 20.6707L116.507 25.9707H113.847L111.367 22.3107L108.867 25.9707Z" fill="var(--fill-0, #747474)" id="Vector_6"/>
</g>
</g>
<defs>
<linearGradient gradientUnits="userSpaceOnUse" id="paint0_linear_0_8" x1="21.9998" x2="9.99976" y1="20.0005" y2="20.0005">
<stop/>
<stop offset="1" stop-color="#747474"/>
</linearGradient>
</defs>
</svg>