<?xml version="1.0" encoding="utf-8"?>
<svg xmlns="http://www.w3.org/2000/svg" fill="none" height="100%" overflow="visible" preserveAspectRatio="none" style="display: block;" viewBox="0 0 137 40" width="100%">
<g id="Frame_1707484101_cmkvnl 1">
<g id="Group">
<path d="M36.9749 12.9297H41.8338C44.1859 12.9297 46.0449 13.6057 47.4111 14.9578C48.7913 16.2958 49.4814 17.9577 49.4814 19.9435C49.4814 21.9294 48.7913 23.5983 47.4111 24.9504C46.0449 26.2884 44.1859 26.9573 41.8338 26.9573H36.9749V12.9297ZM39.7424 24.4856H41.7493C43.2563 24.4856 44.4605 24.0631 45.3619 23.218C46.2632 22.373 46.7139 21.2815 46.7139 19.9435C46.7139 18.6055 46.2632 17.514 45.3619 16.669C44.4605 15.8239 43.2563 15.4014 41.7493 15.4014H39.7424V24.4856Z" fill="var(--fill-0, #747474)" id="Vector"/>
<path d="M51.8678 16.9225H54.5297V17.9577C54.7551 17.6197 55.1072 17.3521 55.586 17.1549C56.0649 16.9436 56.593 16.838 57.1705 16.838H58.3958V19.3731H57.1493C56.3184 19.3731 55.6705 19.6196 55.2058 20.1125C54.7551 20.6055 54.5297 21.2604 54.5297 22.0772V26.9573H51.8678V16.9225Z" fill="var(--fill-0, #747474)" id="Vector_2"/>
<path d="M67.2352 23.9152H70.1083C69.714 24.9292 69.0661 25.7391 68.1647 26.3447C67.2634 26.9362 66.2634 27.232 65.1648 27.232C63.6015 27.232 62.3058 26.732 61.2777 25.732C60.2495 24.718 59.7355 23.4504 59.7355 21.9294C59.7355 20.4224 60.2354 19.1689 61.2354 18.1689C62.2354 17.1549 63.51 16.6479 65.0592 16.6479C66.5944 16.6479 67.8478 17.1478 68.8196 18.1478C69.7914 19.1478 70.2773 20.3942 70.2773 21.8871C70.2773 22.3519 70.2632 22.6617 70.2351 22.8167H62.503C62.6438 23.4223 62.9537 23.9011 63.4325 24.2532C63.9255 24.6053 64.5029 24.7814 65.1648 24.7814C66.0803 24.7814 66.7704 24.4926 67.2352 23.9152ZM62.5663 20.8308H67.4464C67.3619 20.2534 67.1014 19.7956 66.6648 19.4576C66.2282 19.1055 65.693 18.9295 65.0592 18.9295C64.4395 18.9295 63.8902 19.1055 63.4114 19.4576C62.9325 19.8097 62.6509 20.2674 62.5663 20.8308Z" fill="var(--fill-0, #747474)" id="Vector_3"/>
<path d="M77.0137 16.6479C78.5489 16.6479 79.7742 17.007 80.6896 17.7253C81.6192 18.4436 82.084 19.4435 82.084 20.7252V26.9573H79.4221V26.1968C78.732 26.8869 77.6475 27.232 76.1687 27.232C74.9293 27.232 73.9575 26.9362 73.2533 26.3447C72.5632 25.7532 72.2181 24.9152 72.2181 23.8307C72.2181 22.6758 72.6618 21.8589 73.5491 21.3801C74.4504 20.8871 75.5842 20.6407 76.9503 20.6407H79.4221C79.4221 20.0914 79.2038 19.683 78.7672 19.4154C78.3306 19.1478 77.7672 19.014 77.0771 19.014C75.8518 19.014 75.0701 19.4154 74.7321 20.2182H71.9857C72.2533 19.0492 72.8519 18.1619 73.7814 17.5563C74.7251 16.9507 75.8025 16.6479 77.0137 16.6479ZM79.4221 23.049V22.6265H76.9503C75.5701 22.6265 74.88 23.035 74.88 23.8518C74.88 24.218 75.0349 24.5208 75.3448 24.7602C75.6687 24.9856 76.1194 25.0983 76.6968 25.0983C77.4574 25.0983 78.0982 24.9222 78.6193 24.5701C79.1545 24.2039 79.4221 23.6969 79.4221 23.049Z" fill="var(--fill-0, #747474)" id="Vector_4"/>
<path d="M97.6569 16.6479C98.9527 16.6479 100.009 17.0352 100.826 17.8098C101.643 18.5844 102.051 19.6266 102.051 20.9364V26.9573H99.3893V21.4223C99.3893 19.8731 98.6569 19.0985 97.1922 19.0985C96.5021 19.0985 95.9317 19.359 95.481 19.8801C95.0444 20.3872 94.8261 21.0562 94.8261 21.8871V26.9573H92.1642V21.4223C92.1642 19.8731 91.4318 19.0985 89.9671 19.0985C89.277 19.0985 88.7066 19.359 88.2559 19.8801C87.8193 20.3872 87.601 21.0562 87.601 21.8871V26.9573H84.9391V16.9225H87.601V17.683C88.2911 16.9929 89.2488 16.6479 90.4741 16.6479C92.1501 16.6479 93.3472 17.1549 94.0655 18.1689C94.8824 17.1549 96.0795 16.6479 97.6569 16.6479Z" fill="var(--fill-0, #747474)" id="Vector_5"/>
<path d="M109.114 27.232C107.804 27.232 106.741 26.8517 105.924 26.0912C105.121 25.3166 104.72 24.2743 104.72 22.9645V16.9225H107.381V22.4786C107.381 23.211 107.572 23.7814 107.952 24.1898C108.346 24.5842 108.917 24.7814 109.663 24.7814C110.339 24.7814 110.91 24.5279 111.374 24.0208C111.853 23.5138 112.093 22.8448 112.093 22.0139V16.9225H114.754V26.9573H112.093V26.1968C111.445 26.8869 110.452 27.232 109.114 27.232Z" fill="var(--fill-0, #747474)" id="Vector_6"/>
<path d="M117.804 16.9225H120.466V17.9577C120.691 17.6197 121.043 17.3521 121.522 17.1549C122.001 16.9436 122.529 16.838 123.107 16.838H124.332V19.3731H123.086C122.255 19.3731 121.607 19.6196 121.142 20.1125C120.691 20.6055 120.466 21.2604 120.466 22.0772V26.9573H117.804V16.9225Z" fill="var(--fill-0, #747474)" id="Vector_7"/>
<path d="M133.171 23.9152H136.045C135.65 24.9292 135.002 25.7391 134.101 26.3447C133.2 26.9362 132.2 27.232 131.101 27.232C129.538 27.232 128.242 26.732 127.214 25.732C126.186 24.718 125.672 23.4504 125.672 21.9294C125.672 20.4224 126.172 19.1689 127.172 18.1689C128.172 17.1549 129.446 16.6479 130.995 16.6479C132.531 16.6479 133.784 17.1478 134.756 18.1478C135.728 19.1478 136.214 20.3942 136.214 21.8871C136.214 22.3519 136.199 22.6617 136.171 22.8167H128.439C128.58 23.4223 128.89 23.9011 129.369 24.2532C129.862 24.6053 130.439 24.7814 131.101 24.7814C132.016 24.7814 132.707 24.4926 133.171 23.9152ZM128.503 20.8308H133.383C133.298 20.2534 133.038 19.7956 132.601 19.4576C132.164 19.1055 131.629 18.9295 130.995 18.9295C130.376 18.9295 129.826 19.1055 129.348 19.4576C128.869 19.8097 128.587 20.2674 128.503 20.8308Z" fill="var(--fill-0, #747474)" id="Vector_8"/>
<path d="M23.9596 14.6193C24.5543 13.5893 24.1278 12.2459 22.9507 12.4161C22.092 12.5403 21.1424 12.9324 20.1571 13.583C18.2709 14.8284 16.4081 16.919 14.9786 19.3949C13.5491 21.8709 12.67 24.5294 12.5345 26.7856C12.4638 27.9642 12.599 28.9826 12.9208 29.7884C13.362 30.8929 14.7386 30.5905 15.3333 29.5605L19.6464 22.0899L23.9596 14.6193Z" fill="var(--fill-0, #747474)" id="Vector_9"/>
<path d="M8.89319 29.5604C9.48788 30.5904 10.8645 30.8928 11.3056 29.7883C11.6274 28.9824 11.7627 27.9641 11.6919 26.7854C11.5565 24.5293 10.6774 21.8708 9.24785 19.3948C7.81836 16.9188 5.95562 14.8282 4.06942 13.5829C3.08409 12.9323 2.13452 12.5402 1.27575 12.416C0.0986309 12.2457 -0.327811 13.5891 0.266874 14.6192L4.58003 22.0898L8.89319 29.5604Z" fill="var(--fill-0, #747474)" id="Vector_10"/>
<path d="M3.26708 9C2.07771 9 1.12751 10.041 1.86352 10.9753C2.40048 11.6569 3.2148 12.2832 4.27088 12.8113C6.2925 13.8221 9.0344 14.3899 11.8934 14.3899C14.7524 14.3899 17.4943 13.8221 19.5159 12.8113C20.572 12.2832 21.3863 11.6569 21.9233 10.9753C22.6593 10.041 21.7091 9 20.5197 9H11.8934H3.26708Z" fill="var(--fill-0, #747474)" id="Vector_11"/>
</g>
</g>
</svg>