<?xml version="1.0" encoding="utf-8"?>
<svg xmlns="http://www.w3.org/2000/svg" fill="none" height="100%" overflow="visible" preserveAspectRatio="none" style="display: block;" viewBox="0 0 136 40" width="100%">
<g clip-path="url(#clip0_0_17)" id="Frame_1707484102_twkhod 1">
<g id="Group">
<path d="M31.1122 8.90712C36.0434 13.8383 36.0439 21.8337 31.1129 26.765C28.0653 29.8126 23.8478 30.9735 19.9062 30.2543C20.0022 29.7536 20.0583 29.2464 20.0692 28.7379C20.0943 27.5571 19.8867 26.392 19.4581 25.3108C19.0294 24.2295 18.388 23.2518 17.5708 22.4347C16.7537 21.6176 15.776 20.9761 14.6948 20.5475C13.6136 20.1189 12.449 19.9119 11.2683 19.937C10.7633 19.9478 10.2597 20.0033 9.76227 20.0979C9.04901 16.1609 10.2115 11.9506 13.255 8.90712C18.1862 3.97619 26.181 3.97619 31.1122 8.90712ZM23.535 16.483C21.8912 14.8396 19.2255 14.8388 17.5819 16.4823C15.9382 18.1259 15.9391 20.7916 17.5826 22.4354C19.2264 24.0788 21.8913 24.079 23.535 22.4354C25.1785 20.7917 25.1783 18.1267 23.535 16.483Z" fill="var(--fill-0, #747474)" id="Vector"/>
<path clip-rule="evenodd" d="M17.144 28.3584C17.5703 28.2354 17.9563 28.0173 18.2734 27.7001C19.5373 26.4362 19.2294 24.079 17.5857 22.4353C15.9419 20.7915 13.5848 20.4836 12.3208 21.7475C12.004 22.0643 11.786 22.4498 11.663 22.8755L8.69915 30.2939C8.48163 30.8383 9.1825 31.5392 9.72694 31.3217L17.144 28.3584Z" fill="var(--fill-0, #747474)" fill-rule="evenodd" id="Vector_2"/>
<path d="M42.4883 11.4546C42.4883 11.0255 42.6437 10.6703 42.9544 10.3891C43.28 10.108 43.6722 9.96736 44.131 9.96736H50.1911C51.2862 9.96736 52.2555 10.1893 53.099 10.6333C53.9426 11.0625 54.5937 11.6692 55.0525 12.4536C55.526 13.2379 55.7628 14.148 55.7628 15.1839C55.7628 16.2347 55.5334 17.1596 55.0747 17.9587C54.6159 18.7431 53.9648 19.3498 53.1212 19.779C52.2925 20.2081 51.3158 20.4227 50.1911 20.4227H45.7514V23.3529C45.7514 24.1224 45.4702 24.707 44.9079 25.1066C44.3603 25.5061 43.5538 25.7059 42.4883 25.7059V11.4546ZM50.1911 17.6036C50.931 17.6036 51.5008 17.3964 51.9003 16.982C52.2999 16.5528 52.4997 15.9461 52.4997 15.1617C52.4997 14.407 52.2999 13.8225 51.9003 13.4081C51.5008 12.9937 50.931 12.7865 50.1911 12.7865H45.7514V17.6036H50.1911Z" fill="var(--fill-0, #747474)" id="Vector_3"/>
<path d="M58.9665 13.3637C58.4041 13.3637 57.9306 13.2009 57.5458 12.8753C57.1758 12.535 56.9908 12.0984 56.9908 11.5656C56.9908 11.0329 57.1758 10.6037 57.5458 10.2781C57.9306 9.93776 58.4041 9.76758 58.9665 9.76758C59.5288 9.76758 59.995 9.93776 60.365 10.2781C60.7497 10.6037 60.9421 11.0329 60.9421 11.5656C60.9421 12.0984 60.7497 12.535 60.365 12.8753C59.995 13.2009 59.5288 13.3637 58.9665 13.3637ZM57.4348 15.9831C57.4348 15.3467 57.6864 14.8954 58.1895 14.629C58.6927 14.3478 59.4548 14.2072 60.476 14.2072V23.93C60.476 24.5664 60.2244 25.0252 59.7212 25.3063C59.2181 25.5727 58.4559 25.7059 57.4348 25.7059V15.9831Z" fill="var(--fill-0, #747474)" id="Vector_4"/>
<path d="M63.3858 16.5158C63.3858 15.7759 63.63 15.2061 64.1184 14.8066C64.6067 14.407 65.3319 14.2072 66.2938 14.2072V15.5169C66.0718 15.7537 65.8868 16.0053 65.7388 16.2717L65.8942 16.3605C66.3382 15.6797 66.9006 15.1543 67.5813 14.7844C68.2768 14.3996 69.0464 14.2072 69.8899 14.2072C70.6299 14.2072 71.281 14.3774 71.8434 14.7178C72.4205 15.0582 72.8719 15.5317 73.1974 16.1385C73.523 16.7304 73.6858 17.3964 73.6858 18.1363V23.93C73.6858 24.5664 73.4342 25.0252 72.9311 25.3063C72.4279 25.5727 71.6658 25.7059 70.6447 25.7059V18.6025C70.6447 18.0993 70.4819 17.6775 70.1563 17.3372C69.8455 16.9968 69.4016 16.8266 68.8244 16.8266C68.1141 16.8266 67.5369 17.056 67.0929 17.5148C66.649 17.9735 66.427 18.5507 66.427 19.2462V23.93C66.427 24.5664 66.1754 25.0252 65.6722 25.3063C65.1839 25.5727 64.4217 25.7059 63.3858 25.7059V16.5158Z" fill="var(--fill-0, #747474)" id="Vector_5"/>
<path d="M82.3062 25.7059C80.2343 25.7059 78.5917 25.3507 77.3782 24.6404C76.1795 23.93 75.5801 22.9459 75.5801 21.688C75.5801 21.1405 75.7873 20.6965 76.2017 20.3561C76.616 20.0158 77.3116 19.8456 78.2883 19.8456C78.3475 20.9259 78.7175 21.7472 79.3982 22.3096C80.0938 22.8571 81.0631 23.1309 82.3062 23.1309C83.2681 23.1309 84.0228 22.9681 84.5704 22.6425C85.118 22.3022 85.3917 21.836 85.3917 21.2441C85.3917 20.8445 85.2881 20.5189 85.081 20.2673C84.8738 20.0158 84.5112 19.7864 83.9932 19.5792C83.4901 19.372 82.7501 19.1574 81.7734 18.9354C80.2935 18.5951 79.1318 18.2103 78.2883 17.7811C77.4448 17.352 76.8306 16.8414 76.4458 16.2495C76.0759 15.6575 75.8909 14.9176 75.8909 14.0296C75.8909 13.1861 76.1425 12.4462 76.6456 11.8098C77.1636 11.1587 77.8813 10.6555 78.7989 10.3003C79.7164 9.94516 80.7819 9.76758 81.9954 9.76758C83.1497 9.76758 84.1856 9.92297 85.1032 10.2337C86.0207 10.5297 86.7384 10.9515 87.2564 11.499C87.7743 12.0466 88.0333 12.6755 88.0333 13.3859C88.0333 13.9334 87.8261 14.37 87.4118 14.6956C87.0122 15.0064 86.3463 15.1765 85.4139 15.2061C85.3399 14.2146 85.0366 13.4895 84.5038 13.0307C83.971 12.572 83.1349 12.3426 81.9954 12.3426C81.0631 12.3426 80.3453 12.4906 79.8422 12.7865C79.339 13.0825 79.0874 13.5117 79.0874 14.074C79.0874 14.4588 79.1836 14.777 79.376 15.0286C79.5684 15.2653 79.894 15.4799 80.3527 15.6723C80.8263 15.8647 81.4996 16.0571 82.3728 16.2495C83.8971 16.5898 85.1032 16.982 85.9911 17.426C86.8938 17.8551 87.545 18.3731 87.9445 18.9798C88.3589 19.5866 88.5661 20.3339 88.5661 21.2219C88.5661 22.1246 88.3071 22.9163 87.7891 23.5971C87.286 24.2778 86.5608 24.8032 85.6137 25.1731C84.6814 25.5283 83.5789 25.7059 82.3062 25.7059Z" fill="var(--fill-0, #747474)" id="Vector_6"/>
<path d="M90.57 16.2273C90.57 15.6649 90.8068 15.1913 91.2803 14.8066C91.7539 14.407 92.4494 14.2072 93.367 14.2072V15.4059C93.1894 15.6279 93.0488 15.8277 92.9452 16.0053L93.0562 16.0941C93.515 15.4577 94.0255 14.9842 94.5879 14.6734C95.165 14.3626 95.8828 14.2072 96.7411 14.2072C97.5402 14.2072 98.2506 14.3774 98.8721 14.7178C99.5085 15.0582 99.9968 15.5391 100.337 16.1607C100.692 16.7674 100.87 17.463 100.87 18.2473V21.6658C100.87 22.465 100.67 23.1753 100.271 23.7969C99.8858 24.4036 99.3457 24.8772 98.6501 25.2175C97.9694 25.5431 97.1999 25.7059 96.3415 25.7059C95.8384 25.7059 95.2908 25.6023 94.6989 25.3951C94.1217 25.1879 93.6407 24.8994 93.256 24.5294L93.1672 24.6404C93.2412 24.7588 93.404 24.9068 93.6555 25.0844V28.1477C93.6555 29.4796 92.627 30.1455 90.57 30.1455V16.2273ZM95.72 23.0865C96.4007 23.0865 96.9187 22.9459 97.2739 22.6647C97.6438 22.3836 97.8288 21.984 97.8288 21.466V18.4693C97.8288 17.9365 97.6438 17.5296 97.2739 17.2484C96.9187 16.9672 96.4007 16.8266 95.72 16.8266C95.0984 16.8266 94.5879 16.9746 94.1883 17.2706C93.8035 17.5518 93.6111 17.9143 93.6111 18.3583V21.5548C93.6111 21.984 93.8035 22.3466 94.1883 22.6425C94.5879 22.9385 95.0984 23.0865 95.72 23.0865Z" fill="var(--fill-0, #747474)" id="Vector_7"/>
<path d="M106.546 25.7059C105.821 25.7059 105.14 25.5653 104.504 25.2841C103.883 24.9882 103.379 24.5664 102.995 24.0188C102.61 23.4565 102.417 22.7831 102.417 21.9988C102.417 21.2145 102.625 20.5411 103.039 19.9788C103.453 19.4016 104.001 18.965 104.682 18.6691C105.377 18.3731 106.132 18.2251 106.946 18.2251C107.627 18.2251 108.226 18.3287 108.744 18.5359C109.277 18.7431 109.772 19.0464 110.231 19.446L110.342 19.3128C110.031 19.0316 109.787 18.8319 109.61 18.7135V18.4249C109.61 17.8625 109.402 17.4186 108.988 17.093C108.589 16.7526 108.019 16.5824 107.279 16.5824C106.628 16.5824 106.051 16.7008 105.547 16.9376C105.044 17.1744 104.637 17.5222 104.326 17.9809C103.971 17.8921 103.668 17.7293 103.416 17.4926C103.18 17.241 103.061 16.9672 103.061 16.6712C103.061 16.2125 103.261 15.7981 103.661 15.4281C104.06 15.0434 104.6 14.7474 105.281 14.5402C105.977 14.3182 106.739 14.2072 107.567 14.2072C109.18 14.2072 110.424 14.5772 111.297 15.3171C112.17 16.0571 112.606 17.0634 112.606 18.3361V23.7303C112.606 24.4258 112.377 24.929 111.918 25.2397C111.474 25.5505 110.764 25.7059 109.787 25.7059V24.8402C110.009 24.633 110.187 24.448 110.32 24.2852L110.209 24.1742C109.721 24.6774 109.21 25.0622 108.677 25.3285C108.145 25.5801 107.434 25.7059 106.546 25.7059ZM107.39 23.5305C108.1 23.5305 108.655 23.3973 109.055 23.1309C109.454 22.8645 109.654 22.4798 109.654 21.9766C109.654 21.4882 109.447 21.1035 109.032 20.8223C108.633 20.5411 108.085 20.4005 107.39 20.4005C106.768 20.4005 106.273 20.5411 105.903 20.8223C105.547 21.1035 105.37 21.4882 105.37 21.9766C105.37 22.4798 105.547 22.8645 105.903 23.1309C106.273 23.3973 106.768 23.5305 107.39 23.5305Z" fill="var(--fill-0, #747474)" id="Vector_8"/>
<path d="M119.494 25.7059C118.518 25.7059 117.652 25.5283 116.897 25.1731C116.143 24.818 115.551 24.3296 115.121 23.7081C114.707 23.0717 114.5 22.354 114.5 21.5548V18.6025C114.5 17.7441 114.707 16.982 115.121 16.3161C115.551 15.6501 116.143 15.1322 116.897 14.7622C117.652 14.3922 118.51 14.2072 119.472 14.2072C120.375 14.2072 121.174 14.3404 121.87 14.6068C122.565 14.8584 123.105 15.2135 123.49 15.6723C123.89 16.1311 124.089 16.6564 124.089 17.2484C124.089 17.7367 123.897 18.1289 123.512 18.4249C123.128 18.7209 122.617 18.8689 121.981 18.8689C121.788 18.8689 121.648 18.8615 121.559 18.8467C121.559 18.2547 121.374 17.7737 121.004 17.4038C120.634 17.019 120.153 16.8266 119.561 16.8266C118.969 16.8266 118.481 17.0116 118.096 17.3816C117.726 17.7367 117.541 18.1955 117.541 18.7579V21.3329C117.541 21.8508 117.726 22.2726 118.096 22.5982C118.481 22.9237 118.976 23.0865 119.583 23.0865C120.175 23.0865 120.656 22.9015 121.026 22.5316C121.411 22.1616 121.603 21.6806 121.603 21.0887C121.707 21.0739 121.855 21.0665 122.047 21.0665C122.684 21.0665 123.194 21.2145 123.579 21.5104C123.964 21.7916 124.156 22.1764 124.156 22.6647C124.156 23.2567 123.956 23.7821 123.557 24.2408C123.172 24.6996 122.624 25.0622 121.914 25.3285C121.204 25.5801 120.397 25.7059 119.494 25.7059Z" fill="var(--fill-0, #747474)" id="Vector_9"/>
<path d="M131.116 25.7059C130.198 25.7059 129.347 25.5209 128.563 25.1509C127.794 24.781 127.179 24.2778 126.721 23.6415C126.262 23.0051 126.033 22.2948 126.033 21.5104V18.6691C126.033 17.8403 126.262 17.0856 126.721 16.4048C127.194 15.7093 127.823 15.1691 128.608 14.7844C129.392 14.3996 130.235 14.2072 131.138 14.2072C132.026 14.2072 132.84 14.3922 133.58 14.7622C134.335 15.1174 134.927 15.6279 135.356 16.2939C135.785 16.945 136 17.6849 136 18.5137V19.7124C136 20.0676 135.866 20.3709 135.6 20.6225C135.334 20.8593 134.993 20.9777 134.579 20.9777H128.985V21.2885C128.985 21.8804 129.162 22.3688 129.518 22.7535C129.888 23.1235 130.428 23.3085 131.138 23.3085C131.834 23.3085 132.344 23.1605 132.67 22.8645C132.995 22.5538 133.158 22.169 133.158 21.7102C133.454 21.6806 133.676 21.6658 133.824 21.6658C134.431 21.6658 134.897 21.7916 135.223 22.0432C135.548 22.2948 135.711 22.6647 135.711 23.1531C135.711 23.5527 135.511 23.9522 135.112 24.3518C134.712 24.7514 134.157 25.077 133.447 25.3285C132.751 25.5801 131.974 25.7059 131.116 25.7059ZM133.247 18.8245V18.5137C133.247 17.9217 133.047 17.4556 132.648 17.1152C132.263 16.76 131.752 16.5824 131.116 16.5824C130.48 16.5824 129.962 16.76 129.562 17.1152C129.177 17.4556 128.985 17.9217 128.985 18.5137V18.8245H133.247Z" fill="var(--fill-0, #747474)" id="Vector_10"/>
</g>
</g>
<defs>
<clipPath id="clip0_0_17">
<rect fill="white" height="40" width="136"/>
</clipPath>
</defs>
</svg>