<?xml version="1.0" encoding="utf-8"?>
<svg xmlns="http://www.w3.org/2000/svg" fill="none" height="100%" overflow="visible" preserveAspectRatio="none" style="display: block;" viewBox="0 0 100 32" width="100%">
<g clip-path="url(#clip0_0_27)" id="logo_iomc2x 1">
<g id="Group">
<path d="M10.667 16C10.667 21.891 8.27851 26.667 5.33301 26.667C2.38764 26.6667 7.3719e-06 21.8908 0 16C2.57495e-07 10.1092 2.38764 5.33335 5.33301 5.33301C8.27852 5.33301 10.667 10.109 10.667 16ZM22.9346 26.667C22.9343 29.6124 19.83 32 16.001 32C12.172 32 9.0676 29.6123 9.06738 26.667C9.06738 23.7215 12.1718 21.333 16.001 21.333C19.8301 21.333 22.9346 23.7215 22.9346 26.667ZM21.334 5.33301C21.334 8.27852 18.9465 10.667 16.001 10.667C13.0555 10.667 10.668 8.27851 10.668 5.33301C10.6681 2.38765 13.0556 1.70027e-05 16.001 0C18.9464 2.57496e-07 21.3338 2.38764 21.334 5.33301ZM32.001 16C32.001 21.8908 29.6133 26.6667 26.668 26.667C23.7225 26.667 21.334 21.891 21.334 16C21.334 10.109 23.7225 5.33301 26.668 5.33301C29.6133 5.33335 32.001 10.1092 32.001 16Z" fill="url(#paint0_linear_0_27)" id="Vector"/>
<path d="M43.3187 21.7799C41.9587 21.7799 40.8854 21.5532 40.0987 21.0999C39.312 20.6332 38.9187 20.0132 38.9187 19.2399C38.9187 18.8932 39.0654 18.5999 39.3587 18.3599C39.6654 18.1199 40.152 17.9999 40.8187 17.9999C40.9254 18.5332 41.192 18.9532 41.6187 19.2599C42.0454 19.5532 42.5454 19.6999 43.1187 19.6999C43.7854 19.6999 44.2987 19.6199 44.6587 19.4599C45.032 19.2999 45.2187 19.0666 45.2187 18.7599C45.2187 18.4932 45.072 18.2599 44.7787 18.0599C44.4854 17.8599 43.8987 17.6532 43.0187 17.4399C41.992 17.1999 41.192 16.9599 40.6187 16.7199C40.0587 16.4666 39.6454 16.1532 39.3787 15.7799C39.112 15.4066 38.9787 14.9132 38.9787 14.2999C38.9787 13.4332 39.3387 12.7399 40.0587 12.2199C40.792 11.6866 41.812 11.4199 43.1187 11.4199C44.3987 11.4199 45.4387 11.6399 46.2387 12.0799C47.0387 12.5199 47.4387 13.1066 47.4387 13.8399C47.4387 14.2132 47.2987 14.4866 47.0187 14.6599C46.7387 14.8199 46.272 14.9066 45.6187 14.9199C45.4454 14.4132 45.1787 14.0399 44.8187 13.7999C44.472 13.5466 43.972 13.4199 43.3187 13.4199C42.852 13.4199 42.4387 13.4999 42.0787 13.6599C41.7187 13.8199 41.5387 14.0132 41.5387 14.2399C41.5387 14.4932 41.6854 14.6932 41.9787 14.8399C42.2854 14.9866 42.792 15.1332 43.4987 15.2799C45.032 15.6132 46.132 16.0532 46.7987 16.5999C47.4787 17.1466 47.8187 17.8866 47.8187 18.8199C47.8187 19.3932 47.6387 19.9066 47.2787 20.3599C46.9187 20.8132 46.3987 21.1666 45.7187 21.4199C45.0387 21.6599 44.2387 21.7799 43.3187 21.7799Z" fill="var(--fill-0, #747474)" id="Vector_2"/>
<path d="M49.4502 13.2399C49.4502 12.7332 49.6636 12.3066 50.0902 11.9599C50.5169 11.5999 51.1436 11.4199 51.9702 11.4199V12.4999C51.8102 12.6999 51.6836 12.8799 51.5902 13.0399L51.6902 13.1199C52.1036 12.5466 52.5636 12.1199 53.0702 11.8399C53.5902 11.5599 54.2369 11.4199 55.0102 11.4199C55.7302 11.4199 56.3702 11.5732 56.9302 11.8799C57.5036 12.1866 57.9436 12.6199 58.2502 13.1799C58.5702 13.7266 58.7302 14.3532 58.7302 15.0599V18.1399C58.7302 18.8599 58.5502 19.4999 58.1902 20.0599C57.8436 20.6066 57.3569 21.0332 56.7302 21.3399C56.1169 21.6332 55.4236 21.7799 54.6502 21.7799C54.1969 21.7799 53.7036 21.6866 53.1702 21.4999C52.6502 21.3132 52.2169 21.0532 51.8702 20.7199L51.7902 20.8199C51.8569 20.9266 52.0036 21.0599 52.2302 21.2199V23.9799C52.2302 25.1799 51.3036 25.7799 49.4502 25.7799V13.2399ZM54.0902 19.4199C54.7036 19.4199 55.1702 19.2932 55.4902 19.0399C55.8236 18.7866 55.9902 18.4266 55.9902 17.9599V15.2599C55.9902 14.7799 55.8236 14.4132 55.4902 14.1599C55.1702 13.9066 54.7036 13.7799 54.0902 13.7799C53.5302 13.7799 53.0702 13.9132 52.7102 14.1799C52.3636 14.4332 52.1902 14.7599 52.1902 15.1599V18.0399C52.1902 18.4266 52.3636 18.7532 52.7102 19.0199C53.0702 19.2866 53.5302 19.4199 54.0902 19.4199Z" fill="var(--fill-0, #747474)" id="Vector_3"/>
<path d="M60.5244 9.49992C60.5244 8.84659 60.7578 8.33992 61.2244 7.97992C61.7044 7.60659 62.3844 7.41992 63.2644 7.41992V12.5999C63.0644 12.8132 62.8978 13.0399 62.7644 13.2799L62.9044 13.3599C63.7978 12.0666 64.9578 11.4199 66.3844 11.4199C67.0511 11.4199 67.6378 11.5732 68.1444 11.8799C68.6644 12.1866 69.0711 12.6132 69.3644 13.1599C69.6578 13.6932 69.8044 14.2932 69.8044 14.9599V20.1799C69.8044 20.7532 69.5778 21.1666 69.1244 21.4199C68.6711 21.6599 67.9844 21.7799 67.0644 21.7799V15.3799C67.0644 14.9266 66.9178 14.5466 66.6244 14.2399C66.3444 13.9332 65.9444 13.7799 65.4244 13.7799C64.7844 13.7799 64.2644 13.9866 63.8644 14.3999C63.4644 14.8132 63.2644 15.3332 63.2644 15.9599V20.1799C63.2644 20.7532 63.0378 21.1666 62.5844 21.4199C62.1311 21.6599 61.4444 21.7799 60.5244 21.7799V9.49992Z" fill="var(--fill-0, #747474)" id="Vector_4"/>
<path d="M76.313 21.7799C75.4863 21.7799 74.7197 21.6132 74.013 21.2799C73.3197 20.9466 72.7663 20.4932 72.353 19.9199C71.9397 19.3466 71.733 18.7066 71.733 17.9999V15.4399C71.733 14.6932 71.9397 14.0132 72.353 13.3999C72.7797 12.7732 73.3463 12.2866 74.053 11.9399C74.7597 11.5932 75.5197 11.4199 76.333 11.4199C77.133 11.4199 77.8663 11.5866 78.533 11.9199C79.213 12.2399 79.7463 12.6999 80.133 13.2999C80.5197 13.8866 80.713 14.5532 80.713 15.2999V16.3799C80.713 16.6999 80.593 16.9732 80.353 17.1999C80.113 17.4132 79.8063 17.5199 79.433 17.5199H74.393V17.7999C74.393 18.3332 74.553 18.7732 74.873 19.1199C75.2063 19.4532 75.693 19.6199 76.333 19.6199C76.9597 19.6199 77.4197 19.4866 77.713 19.2199C78.0063 18.9399 78.153 18.5932 78.153 18.1799C78.4197 18.1532 78.6197 18.1399 78.753 18.1399C79.2997 18.1399 79.7197 18.2532 80.013 18.4799C80.3063 18.7066 80.453 19.0399 80.453 19.4799C80.453 19.8399 80.273 20.1999 79.913 20.5599C79.553 20.9199 79.053 21.2132 78.413 21.4399C77.7863 21.6666 77.0863 21.7799 76.313 21.7799ZM78.233 15.5799V15.2999C78.233 14.7666 78.053 14.3466 77.693 14.0399C77.3463 13.7199 76.8863 13.5599 76.313 13.5599C75.7397 13.5599 75.273 13.7199 74.913 14.0399C74.5663 14.3466 74.393 14.7666 74.393 15.2999V15.5799H78.233Z" fill="var(--fill-0, #747474)" id="Vector_5"/>
<path d="M87.9366 13.7799C87.1366 13.7799 86.4899 13.9866 85.9966 14.3999C85.5032 14.8132 85.2566 15.3332 85.2566 15.9599V20.1799C85.2566 20.7532 85.0299 21.1666 84.5766 21.4199C84.1366 21.6599 83.4499 21.7799 82.5166 21.7799V13.4999C82.5166 12.8332 82.7366 12.3199 83.1766 11.9599C83.6166 11.5999 84.2699 11.4199 85.1366 11.4199V12.5999C84.9366 12.8132 84.7699 13.0399 84.6366 13.2799L84.7766 13.3599C85.6166 12.0666 86.6632 11.4199 87.9166 11.4199C88.5166 11.4199 88.9699 11.5799 89.2766 11.8999C89.5832 12.2199 89.7366 12.6266 89.7366 13.1199C89.7366 13.4932 89.6366 13.8199 89.4366 14.0999C89.0632 13.8866 88.5632 13.7799 87.9366 13.7799Z" fill="var(--fill-0, #747474)" id="Vector_6"/>
<path d="M94.9262 21.7799C94.0996 21.7799 93.3329 21.6132 92.6262 21.2799C91.9329 20.9466 91.3796 20.4932 90.9663 19.9199C90.5529 19.3466 90.3463 18.7066 90.3463 17.9999V15.4399C90.3463 14.6932 90.5529 14.0132 90.9663 13.3999C91.3929 12.7732 91.9596 12.2866 92.6662 11.9399C93.3729 11.5932 94.1329 11.4199 94.9462 11.4199C95.7462 11.4199 96.4796 11.5866 97.1462 11.9199C97.8262 12.2399 98.3596 12.6999 98.7462 13.2999C99.1329 13.8866 99.3262 14.5532 99.3262 15.2999V16.3799C99.3262 16.6999 99.2062 16.9732 98.9662 17.1999C98.7262 17.4132 98.4196 17.5199 98.0462 17.5199H93.0063V17.7999C93.0063 18.3332 93.1663 18.7732 93.4862 19.1199C93.8196 19.4532 94.3062 19.6199 94.9462 19.6199C95.5729 19.6199 96.0329 19.4866 96.3262 19.2199C96.6196 18.9399 96.7662 18.5932 96.7662 18.1799C97.0329 18.1532 97.2329 18.1399 97.3662 18.1399C97.9129 18.1399 98.3329 18.2532 98.6262 18.4799C98.9196 18.7066 99.0662 19.0399 99.0662 19.4799C99.0662 19.8399 98.8862 20.1999 98.5262 20.5599C98.1662 20.9199 97.6662 21.2132 97.0262 21.4399C96.3996 21.6666 95.6996 21.7799 94.9262 21.7799ZM96.8462 15.5799V15.2999C96.8462 14.7666 96.6662 14.3466 96.3062 14.0399C95.9596 13.7199 95.4996 13.5599 94.9262 13.5599C94.3529 13.5599 93.8862 13.7199 93.5262 14.0399C93.1796 14.3466 93.0063 14.7666 93.0063 15.2999V15.5799H96.8462Z" fill="var(--fill-0, #747474)" id="Vector_7"/>
<path d="M41.569 9.27231C41.0891 9.27231 40.6597 9.17898 40.2811 8.99231C39.9024 8.80564 39.6064 8.54698 39.3931 8.21631C39.1851 7.88031 39.0811 7.49898 39.0811 7.07231V5.71232C39.0811 5.28565 39.1824 4.90698 39.3851 4.57632C39.5931 4.24565 39.8811 3.98965 40.2491 3.80832C40.6224 3.62165 41.0464 3.52832 41.521 3.52832C41.9957 3.52832 42.4197 3.60032 42.793 3.74432C43.1664 3.88299 43.4544 4.07765 43.657 4.32832C43.865 4.57898 43.969 4.86698 43.969 5.19232C43.969 5.40032 43.8997 5.56565 43.761 5.68832C43.6224 5.80565 43.433 5.86432 43.193 5.86432C43.0544 5.86432 42.9184 5.84565 42.785 5.80832C42.801 5.69632 42.809 5.56298 42.809 5.40832C42.809 5.15232 42.689 4.94432 42.449 4.78432C42.209 4.61898 41.8997 4.53632 41.521 4.53632C41.1477 4.53632 40.8437 4.64565 40.6091 4.86432C40.3744 5.08298 40.2571 5.36565 40.2571 5.71232V7.07231C40.2571 7.42431 40.3771 7.71231 40.6171 7.93631C40.8624 8.15498 41.1797 8.26431 41.569 8.26431C41.9424 8.26431 42.2464 8.17898 42.481 8.00831C42.7157 7.83765 42.833 7.61898 42.833 7.35231V7.16831H42.249C42.0304 7.16831 41.8517 7.08298 41.713 6.91231C41.5797 6.74165 41.513 6.52031 41.513 6.24831H43.457C43.617 6.24831 43.7477 6.29898 43.849 6.40031C43.9504 6.49631 44.001 6.62431 44.001 6.78431V7.37631C44.001 7.74431 43.897 8.07231 43.689 8.36031C43.4864 8.64831 43.201 8.87231 42.833 9.03231C42.465 9.19231 42.0437 9.27231 41.569 9.27231Z" fill="var(--fill-0, #747474)" id="Vector_8"/>
<path d="M46.0776 9.27231C45.6136 9.27231 45.2643 9.14164 45.0296 8.88031C44.7949 8.61364 44.6776 8.27764 44.6776 7.87231V4.16832C44.6776 3.93899 44.7656 3.77632 44.9416 3.68032C45.1229 3.57899 45.4003 3.52832 45.7736 3.52832V7.83231C45.7736 8.00831 45.8136 8.13631 45.8936 8.21631C45.9736 8.29098 46.0989 8.32831 46.2696 8.32831C46.4723 8.32831 46.6723 8.27498 46.8696 8.16831C46.9283 8.22164 46.9736 8.28831 47.0056 8.36831C47.0429 8.44831 47.0616 8.52831 47.0616 8.60831C47.0616 8.77898 46.9763 8.93364 46.8056 9.07231C46.6403 9.20564 46.3976 9.27231 46.0776 9.27231Z" fill="var(--fill-0, #747474)" id="Vector_9"/>
<path d="M49.2268 9.27231C48.8748 9.27231 48.5548 9.20831 48.2668 9.08031C47.9788 8.95231 47.7522 8.77631 47.5869 8.55231C47.4215 8.32298 47.3389 8.06431 47.3389 7.77631V6.71231C47.3389 6.41898 47.4188 6.15232 47.5788 5.91232C47.7388 5.66698 47.9628 5.47498 48.2508 5.33632C48.5388 5.19765 48.8642 5.12832 49.2268 5.12832C49.5895 5.12832 49.9148 5.19765 50.2028 5.33632C50.4908 5.47498 50.7148 5.66698 50.8748 5.91232C51.0348 6.15232 51.1148 6.41898 51.1148 6.71231V7.77631C51.1148 8.06431 51.0322 8.32298 50.8668 8.55231C50.7015 8.77631 50.4748 8.95231 50.1868 9.08031C49.8988 9.20831 49.5788 9.27231 49.2268 9.27231ZM49.2268 8.32831C49.4775 8.32831 49.6722 8.27231 49.8108 8.16031C49.9495 8.04831 50.0188 7.89364 50.0188 7.69631V6.76831C50.0188 6.56031 49.9468 6.39231 49.8028 6.26431C49.6642 6.13632 49.4722 6.07232 49.2268 6.07232C48.9815 6.07232 48.7868 6.13632 48.6428 6.26431C48.5042 6.39231 48.4348 6.56031 48.4348 6.76831V7.69631C48.4348 7.89364 48.5042 8.04831 48.6428 8.16031C48.7815 8.27231 48.9762 8.32831 49.2268 8.32831Z" fill="var(--fill-0, #747474)" id="Vector_10"/>
<path d="M53.2514 9.27231C52.9741 9.27231 52.7447 9.21898 52.5634 9.11231C52.3821 9.00564 52.2647 8.85364 52.2114 8.65631L51.3154 5.22432C51.3634 5.19765 51.4354 5.17632 51.5314 5.16032C51.6274 5.13898 51.7181 5.12832 51.8034 5.12832C51.9794 5.12832 52.1261 5.16832 52.2434 5.24832C52.3661 5.32298 52.4407 5.42165 52.4674 5.54432L52.8674 7.52831L52.7554 8.00831L52.8114 8.02431L53.4834 5.48832C53.5154 5.38165 53.5767 5.29632 53.6674 5.23232C53.7581 5.16298 53.8727 5.12832 54.0114 5.12832C54.1554 5.12832 54.2754 5.16298 54.3714 5.23232C54.4674 5.29632 54.5287 5.38165 54.5554 5.48832L55.0674 7.59231L54.9394 8.09631L54.9954 8.11231L55.5554 5.54432C55.5821 5.42165 55.6567 5.32298 55.7794 5.24832C55.9021 5.16832 56.0487 5.12832 56.2194 5.12832C56.3101 5.12832 56.4007 5.13898 56.4914 5.16032C56.5874 5.17632 56.6594 5.19765 56.7074 5.22432L55.8194 8.65631C55.7714 8.84831 55.6434 9.00031 55.4354 9.11231C55.2274 9.21898 54.9847 9.27231 54.7074 9.27231L53.9394 6.13632L53.8914 6.15232L53.9874 6.52031L53.2514 9.27231Z" fill="var(--fill-0, #747474)" id="Vector_11"/>
</g>
</g>
<defs>
<linearGradient gradientUnits="userSpaceOnUse" id="paint0_linear_0_27" x1="5.20013" x2="24.12" y1="28.5999" y2="20.5421">
<stop stop-color="#747474" stop-opacity="0.7"/>
<stop offset="1" stop-color="#747474"/>
</linearGradient>
<clipPath id="clip0_0_27">
<rect fill="white" height="32" width="100"/>
</clipPath>
</defs>
</svg>